<?xml version="1.0" encoding="UTF-8" standalone="no"?><!DOCTYPE svg PUBLIC "-//W3C//DTD SVG 1.1//EN" "http://www.w3.org/Graphics/SVG/1.1/DTD/svg11.dtd"><svg width="100%" height="100%" viewBox="0 0 34 34" version="1.1" xmlns="http://www.w3.org/2000/svg" xmlns:xlink="http://www.w3.org/1999/xlink" xml:space="preserve" xmlns:serif="http://www.serif.com/" style="fill-rule:evenodd;clip-rule:evenodd;stroke-linejoin:round;stroke-miterlimit:1.41421;"><g><path d="M31.35,0.001l0.07,0.003l0.069,0.004l0.069,0.006l0.068,0.008l0.068,0.009l0.067,0.012l0.067,0.012l0.066,0.015l0.065,0.016l0.065,0.017l0.064,0.019l0.064,0.021l0.063,0.022l0.062,0.024l0.061,0.025l0.061,0.026l0.06,0.028l0.059,0.03l0.058,0.03l0.057,0.033l0.057,0.033l0.056,0.035l0.054,0.036l0.054,0.037l0.053,0.039l0.052,0.039l0.051,0.041l0.05,0.043l0.048,0.043l0.048,0.044l0.047,0.046l0.046,0.047l0.044,0.048l0.043,0.048l0.043,0.05l0.041,0.051l0.039,0.052l0.039,0.053l0.037,0.054l0.036,0.054l0.035,0.056l0.033,0.057l0.033,0.057l0.03,0.058l0.03,0.059l0.028,0.06l0.026,0.061l0.025,0.061l0.024,0.062l0.022,0.063l0.021,0.064l0.019,0.064l0.017,0.065l0.016,0.065l0.015,0.066l0.012,0.067l0.012,0.067l0.009,0.068l0.008,0.068l0.006,0.069l0.004,0.069l0.003,0.07l0.001,0.07l0,28.56l-0.001,0.07l-0.003,0.07l-0.004,0.069l-0.006,0.069l-0.008,0.068l-0.009,0.068l-0.012,0.067l-0.012,0.067l-0.015,0.066l-0.016,0.065l-0.017,0.065l-0.019,0.064l-0.021,0.064l-0.022,0.063l-0.024,0.062l-0.025,0.061l-0.026,0.061l-0.028,0.06l-0.03,0.059l-0.03,0.058l-0.033,0.057l-0.033,0.057l-0.035,0.056l-0.036,0.054l-0.037,0.054l-0.039,0.053l-0.039,0.052l-0.041,0.051l-0.043,0.05l-0.043,0.048l-0.044,0.048l-0.046,0.047l-0.047,0.046l-0.048,0.044l-0.048,0.043l-0.05,0.043l-0.051,0.041l-0.052,0.039l-0.053,0.039l-0.054,0.037l-0.054,0.036l-0.056,0.035l-0.057,0.033l-0.057,0.033l-0.058,0.03l-0.059,0.03l-0.06,0.028l-0.061,0.026l-0.061,0.025l-0.062,0.024l-0.063,0.022l-0.064,0.021l-0.064,0.019l-0.065,0.017l-0.065,0.016l-0.066,0.015l-0.067,0.012l-0.067,0.012l-0.068,0.009l-0.068,0.008l-0.069,0.006l-0.069,0.004l-0.07,0.003l-0.07,0.001l-28.56,0l-0.07,-0.001l-0.07,-0.003l-0.069,-0.004l-0.069,-0.006l-0.068,-0.008l-0.068,-0.009l-0.067,-0.012l-0.067,-0.012l-0.066,-0.015l-0.065,-0.016l-0.065,-0.017l-0.064,-0.019l-0.064,-0.021l-0.063,-0.022l-0.062,-0.024l-0.061,-0.025l-0.061,-0.026l-0.06,-0.028l-0.059,-0.03l-0.058,-0.03l-0.057,-0.033l-0.057,-0.033l-0.056,-0.035l-0.054,-0.036l-0.054,-0.037l-0.053,-0.039l-0.052,-0.039l-0.051,-0.041l-0.05,-0.043l-0.048,-0.043l-0.048,-0.044l-0.047,-0.046l-0.046,-0.047l-0.044,-0.048l-0.043,-0.048l-0.043,-0.05l-0.041,-0.051l-0.039,-0.052l-0.039,-0.053l-0.037,-0.054l-0.036,-0.054l-0.035,-0.056l-0.033,-0.057l-0.033,-0.057l-0.03,-0.058l-0.03,-0.059l-0.028,-0.06l-0.026,-0.061l-0.025,-0.061l-0.024,-0.062l-0.022,-0.063l-0.021,-0.064l-0.019,-0.064l-0.017,-0.065l-0.016,-0.065l-0.015,-0.066l-0.012,-0.067l-0.012,-0.067l-0.009,-0.068l-0.008,-0.068l-0.006,-0.069l-0.004,-0.069l-0.003,-0.07l-0.001,-0.07l0,-28.56l0.001,-0.07l0.003,-0.07l0.004,-0.069l0.006,-0.069l0.008,-0.068l0.009,-0.068l0.012,-0.067l0.012,-0.067l0.015,-0.066l0.016,-0.065l0.017,-0.065l0.019,-0.064l0.021,-0.064l0.022,-0.063l0.024,-0.062l0.025,-0.061l0.026,-0.061l0.028,-0.06l0.03,-0.059l0.03,-0.058l0.033,-0.057l0.033,-0.057l0.035,-0.056l0.036,-0.054l0.037,-0.054l0.039,-0.053l0.039,-0.052l0.041,-0.051l0.043,-0.05l0.043,-0.048l0.044,-0.048l0.046,-0.047l0.047,-0.046l0.048,-0.044l0.048,-0.043l0.05,-0.043l0.051,-0.041l0.052,-0.039l0.053,-0.039l0.054,-0.037l0.054,-0.036l0.056,-0.035l0.057,-0.033l0.057,-0.033l0.058,-0.03l0.059,-0.03l0.06,-0.028l0.061,-0.026l0.061,-0.025l0.062,-0.024l0.063,-0.022l0.064,-0.021l0.064,-0.019l0.065,-0.017l0.065,-0.016l0.066,-0.015l0.067,-0.012l0.067,-0.012l0.068,-0.009l0.068,-0.008l0.069,-0.006l0.069,-0.004l0.07,-0.003l0.07,-0.001l28.56,0l0.07,0.001Zm-28.624,0.999l-0.051,0.001l-0.044,0.001l-0.044,0.003l-0.044,0.004l-0.043,0.005l-0.043,0.006l-0.042,0.007l-0.042,0.008l-0.042,0.009l-0.041,0.01l-0.041,0.011l-0.04,0.012l-0.04,0.013l-0.04,0.014l-0.039,0.015l-0.038,0.016l-0.039,0.017l-0.037,0.017l-0.037,0.019l-0.037,0.019l-0.037,0.02l-0.036,0.022l-0.035,0.022l-0.034,0.022l-0.034,0.024l-0.034,0.025l-0.033,0.025l-0.032,0.026l-0.032,0.026l-0.031,0.028l-0.03,0.028l-0.03,0.029l-0.029,0.03l-0.028,0.03l-0.028,0.031l-0.026,0.032l-0.026,0.032l-0.025,0.033l-0.025,0.034l-0.024,0.034l-0.023,0.035l-0.021,0.034l-0.021,0.036l-0.021,0.037l-0.019,0.036l-0.019,0.037l-0.017,0.038l-0.017,0.038l-0.016,0.039l-0.015,0.039l-0.014,0.039l-0.013,0.041l-0.012,0.041l-0.011,0.04l-0.01,0.041l-0.009,0.042l-0.008,0.042l-0.007,0.042l-0.006,0.043l-0.005,0.043l-0.004,0.044l-0.003,0.044l-0.001,0.044l-0.001,0.051l0,28.548l0.001,0.051l0.001,0.044l0.003,0.044l0.004,0.044l0.005,0.043l0.006,0.043l0.007,0.042l0.008,0.042l0.009,0.042l0.01,0.041l0.011,0.04l0.012,0.041l0.013,0.041l0.014,0.039l0.015,0.039l0.016,0.039l0.017,0.038l0.017,0.038l0.019,0.036l0.019,0.037l0.021,0.037l0.021,0.036l0.021,0.034l0.023,0.035l0.024,0.034l0.025,0.034l0.025,0.033l0.026,0.032l0.026,0.032l0.028,0.031l0.028,0.03l0.029,0.03l0.03,0.029l0.03,0.028l0.031,0.028l0.032,0.026l0.032,0.026l0.033,0.025l0.034,0.025l0.034,0.024l0.034,0.022l0.035,0.022l0.036,0.022l0.037,0.02l0.037,0.019l0.036,0.019l0.038,0.017l0.039,0.017l0.038,0.016l0.039,0.015l0.04,0.014l0.04,0.013l0.04,0.012l0.041,0.011l0.041,0.01l0.042,0.009l0.042,0.008l0.042,0.007l0.043,0.006l0.043,0.005l0.044,0.004l0.044,0.003l0.044,0.001l0.051,0.001l28.548,0l0.051,-0.001l0.044,-0.001l0.044,-0.003l0.044,-0.004l0.043,-0.005l0.043,-0.006l0.042,-0.007l0.042,-0.008l0.042,-0.009l0.041,-0.01l0.041,-0.011l0.04,-0.012l0.04,-0.013l0.04,-0.014l0.039,-0.015l0.038,-0.016l0.038,-0.016l0.038,-0.018l0.038,-0.019l0.036,-0.019l0.037,-0.02l0.036,-0.022l0.035,-0.022l0.034,-0.022l0.034,-0.024l0.034,-0.025l0.033,-0.025l0.032,-0.026l0.032,-0.026l0.031,-0.028l0.03,-0.028l0.03,-0.029l0.029,-0.03l0.028,-0.03l0.028,-0.031l0.026,-0.032l0.026,-0.032l0.025,-0.033l0.025,-0.034l0.024,-0.034l0.023,-0.035l0.021,-0.034l0.021,-0.036l0.021,-0.037l0.019,-0.037l0.019,-0.036l0.017,-0.038l0.017,-0.038l0.016,-0.039l0.015,-0.039l0.014,-0.04l0.013,-0.04l0.012,-0.04l0.011,-0.041l0.01,-0.041l0.009,-0.042l0.008,-0.042l0.007,-0.042l0.006,-0.043l0.005,-0.043l0.004,-0.044l0.003,-0.044l0.001,-0.044l0.001,-0.051l0,-28.548l-0.001,-0.051l-0.001,-0.044l-0.003,-0.044l-0.004,-0.044l-0.005,-0.043l-0.006,-0.043l-0.007,-0.042l-0.008,-0.042l-0.009,-0.042l-0.01,-0.041l-0.011,-0.041l-0.012,-0.04l-0.013,-0.04l-0.014,-0.04l-0.015,-0.039l-0.016,-0.039l-0.017,-0.038l-0.017,-0.038l-0.019,-0.037l-0.019,-0.036l-0.021,-0.037l-0.021,-0.036l-0.021,-0.034l-0.023,-0.035l-0.024,-0.034l-0.025,-0.034l-0.025,-0.033l-0.026,-0.032l-0.026,-0.032l-0.028,-0.031l-0.028,-0.03l-0.029,-0.03l-0.03,-0.029l-0.03,-0.028l-0.031,-0.028l-0.032,-0.026l-0.032,-0.026l-0.033,-0.025l-0.033,-0.025l-0.035,-0.024l-0.034,-0.022l-0.035,-0.022l-0.036,-0.022l-0.037,-0.02l-0.036,-0.019l-0.038,-0.019l-0.038,-0.018l-0.038,-0.016l-0.038,-0.016l-0.039,-0.015l-0.04,-0.014l-0.04,-0.013l-0.04,-0.012l-0.041,-0.011l-0.041,-0.01l-0.042,-0.009l-0.042,-0.008l-0.042,-0.007l-0.043,-0.006l-0.043,-0.005l-0.044,-0.004l-0.044,-0.003l-0.044,-0.001l-0.051,-0.001l-28.548,0Z" style="fill:#fff;"/><path d="M17.961,6.319c-0.382,-0.03 -0.763,-0.059 -1.173,-0.059c-4.898,0 -10.29,3.724 -10.29,7.624c0,2.11 1.113,2.842 3.134,2.842c-0.029,-0.263 -0.41,-0.498 -0.41,-1.991c0,-3.109 1.525,-5.337 4.105,-6.422l-4.252,19.937l4.223,0l2.346,-11.026l4.311,0l-2.346,11.026l4.222,0l4.663,-21.931l-4.223,0l-1.876,8.738l-4.311,0l1.877,-8.738Z" style="fill:#fff;fill-rule:nonzero;"/></g></svg>